<svg width="14" height="14" viewBox="0 0 14 14" fill="none" xmlns="http://www.w3.org/2000/svg">
<path fillRule="evenodd" clipRule="evenodd" d="M7.00016 2.33325C7.32233 2.33325 7.5835 2.59442 7.5835 2.91659V11.0833C7.5835 11.4054 7.32233 11.6666 7.00016 11.6666C6.678 11.6666 6.41683 11.4054 6.41683 11.0833V2.91659C6.41683 2.59442 6.678 2.33325 7.00016 2.33325Z" fill="#27A376"/>
<path fillRule="evenodd" clipRule="evenodd" d="M6.58768 2.50411C6.81549 2.2763 7.18484 2.2763 7.41264 2.50411L9.74598 4.83744C9.97378 5.06525 9.97378 5.43459 9.74598 5.6624C9.51817 5.8902 9.14882 5.8902 8.92102 5.6624L6.58768 3.32906C6.35988 3.10126 6.35988 2.73191 6.58768 2.50411Z" fill="#27A376"/>
<path fillRule="evenodd" clipRule="evenodd" d="M7.41264 2.50411C7.64045 2.73191 7.64045 3.10126 7.41264 3.32906L5.07931 5.6624C4.8515 5.8902 4.48216 5.8902 4.25435 5.6624C4.02654 5.43459 4.02654 5.06525 4.25435 4.83744L6.58768 2.50411C6.81549 2.2763 7.18484 2.2763 7.41264 2.50411Z" fill="#27A376"/>
</svg>
