<svg width="21" height="20" viewBox="0 0 21 20" fill="none" xmlns="http://www.w3.org/2000/svg">
<g clipPath="url(#clip0_85_7670)">
<path d="M8.41683 0.833252H2.5835C1.87516 0.833252 1.3335 1.41659 1.3335 2.08325V10.8333C1.3335 11.5416 1.87516 12.0833 2.5835 12.0833H8.41683C9.12516 12.0833 9.66683 11.5416 9.66683 10.8333V2.08325C9.66683 1.41659 9.12516 0.833252 8.41683 0.833252ZM8.41683 13.7499H2.5835C1.87516 13.7499 1.3335 14.2916 1.3335 14.9999V17.9166C1.3335 18.6249 1.87516 19.1666 2.5835 19.1666H8.41683C9.12516 19.1666 9.66683 18.6249 9.66683 17.9166V14.9999C9.66683 14.2916 9.12516 13.7499 8.41683 13.7499ZM18.8335 7.91659H12.5835C11.8752 7.91659 11.3335 8.45825 11.3335 9.16659V17.8749C11.3335 18.5833 11.8752 19.1249 12.5835 19.1249H18.8335C19.5418 19.1249 20.0835 18.5833 20.0835 17.8749V9.16659C20.0835 8.49992 19.5418 7.91659 18.8335 7.91659ZM18.8335 0.833252H12.5835C11.8752 0.833252 11.3335 1.37492 11.3335 2.08325V5.04159C11.3335 5.74992 11.8752 6.29159 12.5835 6.29159H18.8335C19.5418 6.29159 20.0835 5.74992 20.0835 5.04159V2.08325C20.0835 1.41659 19.5418 0.833252 18.8335 0.833252Z" fill="#173206"/>
</g>
<defs>
<clipPath id="clip0_85_7670">
<rect width="20" height="20" fill="white" transform="translate(0.5)"/>
</clipPath>
</defs>
</svg>
