<svg width="12" height="13" viewBox="0 0 12 13" fill="none" xmlns="http://www.w3.org/2000/svg">
<path d="M6 0.5C2.68 0.5 0 3.18 0 6.5C0 9.82 2.68 12.5 6 12.5C9.32 12.5 12 9.82 12 6.5C12 3.18 9.32 0.5 6 0.5ZM6.66667 9.28667C6.66667 9.64667 6.36 9.94 6 9.94C5.64 9.94 5.33333 9.64667 5.33333 9.28667V5.87333C5.33333 5.51333 5.64 5.22 6 5.22C6.36 5.22 6.66667 5.51333 6.66667 5.87333V9.28667ZM6.01333 4.36667C5.65333 4.36667 5.36 4.07333 5.36 3.71333C5.36 3.35333 5.65333 3.06 6.01333 3.06C6.37333 3.06 6.66667 3.35333 6.66667 3.71333C6.66667 4.07333 6.37333 4.36667 6.01333 4.36667Z" fill="#687588"/>
</svg>
