<svg width="26" height="25" viewBox="0 0 26 25" fill="none" xmlns="http://www.w3.org/2000/svg">
<path d="M20.6119 11.6554C20.2442 11.5753 19.8628 11.5833 19.4987 11.6786C19.381 11.7102 19.2575 11.7143 19.1379 11.6904C19.0183 11.6666 18.9058 11.6156 18.8091 11.5413C18.7124 11.467 18.6342 11.3714 18.5804 11.262C18.5266 11.1525 18.4987 11.0322 18.4989 10.9103V6.80115C18.4989 6.58899 18.4147 6.38552 18.2646 6.2355C18.1146 6.08548 17.9112 6.0012 17.699 6.0012H13.5899C13.468 6.00142 13.3476 5.97355 13.2382 5.91976C13.1287 5.86597 13.0332 5.78769 12.9589 5.69101C12.8846 5.59432 12.8335 5.48182 12.8097 5.36223C12.7859 5.24264 12.79 5.11917 12.8216 5.0014C12.9071 4.67151 12.9213 4.32719 12.8634 3.99136C12.8054 3.65553 12.6766 3.3359 12.4855 3.05374C12.2944 2.77159 12.0453 2.53338 11.7549 2.35499C11.4646 2.1766 11.1395 2.06211 10.8015 2.01914C10.4634 1.97618 10.12 2.00573 9.79428 2.10582C9.46852 2.20591 9.16782 2.37425 8.91219 2.59963C8.65657 2.82501 8.45189 3.10226 8.31178 3.41291C8.17167 3.72357 8.09935 4.06052 8.09963 4.40131C8.09951 4.60199 8.12516 4.80186 8.17597 4.99601C8.21146 5.11096 8.21975 5.23259 8.20018 5.35129C8.18062 5.46999 8.13373 5.58252 8.06323 5.68C7.99272 5.77748 7.90052 5.85723 7.79391 5.91298C7.6873 5.96872 7.5692 5.99892 7.44891 6.0012H3.29995C3.08779 6.0012 2.88432 6.08548 2.7343 6.2355C2.58428 6.38552 2.5 6.58899 2.5 6.80115V10.9103C2.49978 11.0322 2.52765 11.1525 2.58144 11.262C2.63524 11.3714 2.71351 11.467 2.8102 11.5413C2.90688 11.6156 3.01938 11.6666 3.13897 11.6904C3.25857 11.7142 3.38203 11.7102 3.49981 11.6786C3.8297 11.5931 4.17402 11.5788 4.50985 11.6368C4.84568 11.6947 5.16531 11.8235 5.44746 12.0147C5.72962 12.2058 5.96782 12.4548 6.14621 12.7452C6.3246 13.0356 6.43909 13.3606 6.48206 13.6987C6.52502 14.0368 6.49548 14.3801 6.39538 14.7059C6.29529 15.0316 6.12695 15.3323 5.90157 15.5879C5.67619 15.8436 5.39895 16.0483 5.08829 16.1884C4.77763 16.3285 4.44069 16.4008 4.0999 16.4005C3.89921 16.4006 3.69934 16.375 3.50519 16.3242C3.39024 16.2887 3.26862 16.2804 3.14991 16.3C3.03121 16.3195 2.91868 16.3664 2.8212 16.4369C2.72373 16.5074 2.64397 16.5996 2.58822 16.7062C2.53248 16.8128 2.50228 16.9309 2.5 17.0512V21.2002C2.5 21.4124 2.58428 21.6158 2.7343 21.7658C2.88432 21.9159 3.08779 22.0001 3.29995 22.0001H7.40905C7.53099 22.0004 7.65134 21.9725 7.76077 21.9187C7.8702 21.8649 7.96578 21.7866 8.04008 21.6899C8.11438 21.5933 8.16542 21.4808 8.18923 21.3612C8.21304 21.2416 8.20899 21.1181 8.17738 21.0003C8.09187 20.6704 8.07761 20.3261 8.13556 19.9903C8.19351 19.6545 8.32234 19.3348 8.51346 19.0527C8.70458 18.7705 8.95362 18.5323 9.24399 18.3539C9.53436 18.1755 9.85941 18.061 10.1975 18.0181C10.5356 17.9751 10.8789 18.0047 11.2047 18.1048C11.5304 18.2048 11.8311 18.3732 12.0867 18.5986C12.3424 18.8239 12.5471 19.1012 12.6872 19.4119C12.8273 19.7225 12.8996 20.0595 12.8993 20.4002C12.8994 20.6009 12.8738 20.8008 12.823 20.9949C12.7875 21.1099 12.7792 21.2315 12.7988 21.3502C12.8183 21.4689 12.8652 21.5815 12.9357 21.6789C13.0062 21.7764 13.0984 21.8562 13.205 21.9119C13.3116 21.9677 13.4297 21.9979 13.55 22.0001H17.699C17.9112 22.0001 18.1146 21.9159 18.2646 21.7658C18.4147 21.6158 18.4989 21.4124 18.4989 21.2002V17.0512C18.5012 16.9309 18.5314 16.8128 18.5872 16.7062C18.6429 16.5996 18.7227 16.5074 18.8201 16.4369C18.9176 16.3664 19.0301 16.3195 19.1489 16.3C19.2676 16.2804 19.3892 16.2887 19.5041 16.3242C19.6983 16.375 19.8981 16.4006 20.0988 16.4005C20.6909 16.4008 21.2622 16.1822 21.7028 15.7867C22.1435 15.3913 22.4224 14.847 22.4861 14.2583C22.5497 13.6697 22.3936 13.0783 22.0476 12.5978C21.7016 12.1174 21.1903 11.7817 20.6119 11.6554Z" fill="#173206"/>
</svg>
