<svg width="16" height="17" viewBox="0 0 16 17" fill="none" xmlns="http://www.w3.org/2000/svg">
<path d="M13.3333 4.64051H10.6667V3.237C10.6667 2.86477 10.5262 2.50778 10.2761 2.24457C10.0261 1.98137 9.68696 1.8335 9.33333 1.8335H6.66667C6.31305 1.8335 5.97391 1.98137 5.72386 2.24457C5.47381 2.50778 5.33333 2.86477 5.33333 3.237V4.64051H2.66667C2.48986 4.64051 2.32029 4.71445 2.19526 4.84605C2.07024 4.97766 2 5.15615 2 5.34227C2 5.52838 2.07024 5.70688 2.19526 5.83848C2.32029 5.97009 2.48986 6.04402 2.66667 6.04402H3.33333V13.7633C3.33333 14.1356 3.47381 14.4925 3.72386 14.7558C3.97391 15.019 4.31304 15.1668 4.66667 15.1668H11.3333C11.687 15.1668 12.0261 15.019 12.2761 14.7558C12.5262 14.4925 12.6667 14.1356 12.6667 13.7633V6.04402H13.3333C13.5101 6.04402 13.6797 5.97009 13.8047 5.83848C13.9298 5.70688 14 5.52838 14 5.34227C14 5.15615 13.9298 4.97766 13.8047 4.84605C13.6797 4.71445 13.5101 4.64051 13.3333 4.64051ZM6.66667 3.237H9.33333V4.64051H6.66667V3.237ZM11.3333 13.7633H4.66667V6.04402H11.3333V13.7633Z" fill="#4E544D"/>
<path d="M6.66667 6.74578C6.48986 6.74578 6.32029 6.81971 6.19526 6.95132C6.07024 7.08292 6 7.26141 6 7.44753V12.3598C6 12.5459 6.07024 12.7244 6.19526 12.856C6.32029 12.9876 6.48986 13.0616 6.66667 13.0616C6.84348 13.0616 7.01305 12.9876 7.13807 12.856C7.2631 12.7244 7.33333 12.5459 7.33333 12.3598V7.44753C7.33333 7.26141 7.2631 7.08292 7.13807 6.95132C7.01305 6.81971 6.84348 6.74578 6.66667 6.74578Z" fill="#4E544D"/>
<path d="M9.33333 6.74578C9.15652 6.74578 8.98695 6.81971 8.86193 6.95132C8.73691 7.08292 8.66667 7.26141 8.66667 7.44753V12.3598C8.66667 12.5459 8.73691 12.7244 8.86193 12.856C8.98695 12.9876 9.15652 13.0616 9.33333 13.0616C9.51014 13.0616 9.67971 12.9876 9.80474 12.856C9.92976 12.7244 10 12.5459 10 12.3598V7.44753C10 7.26141 9.92976 7.08292 9.80474 6.95132C9.67971 6.81971 9.51014 6.74578 9.33333 6.74578Z" fill="#4E544D"/>
</svg>
