<svg width="18" height="18" viewBox="0 0 18 18" fill="none" xmlns="http://www.w3.org/2000/svg">
<path d="M0 8.11757C0 12.5936 3.64155 16.2351 8.11757 16.2351C9.70382 16.2351 11.185 15.7774 12.4366 14.9877L14.9206 17.4716C15.625 18.1761 16.7672 18.1761 17.4716 17.4716C18.1761 16.7671 18.1761 15.625 17.4716 14.9206L14.9877 12.4366C15.7774 11.1849 16.2351 9.70375 16.2351 8.11757C16.2351 3.64155 12.5936 0 8.11757 0C3.64155 0 0 3.64148 0 8.11757ZM14.4312 8.11757C14.4312 11.5989 11.5989 14.4312 8.11757 14.4312C4.63623 14.4312 1.8039 11.599 1.8039 8.11757C1.8039 4.63619 4.63623 1.8039 8.11757 1.8039C11.5989 1.8039 14.4312 4.63616 14.4312 8.11757Z" fill="#64748B"/>
</svg>
