<svg width="21" height="20" viewBox="0 0 21 20" fill="none" xmlns="http://www.w3.org/2000/svg">
<path d="M14.3828 1.6665H7.2964C4.21831 1.6665 2.3833 3.47484 2.3833 6.50817V13.4832C2.3833 16.5248 4.21831 18.3332 7.2964 18.3332H14.3743C17.4524 18.3332 19.2874 16.5248 19.2874 13.4915V6.50817C19.2959 3.47484 17.4609 1.6665 14.3828 1.6665ZM13.089 11.4415L12.0066 12.0582L10.9241 12.6748C9.52886 13.4665 8.38726 12.8165 8.38726 11.2332V9.99984V8.7665C8.38726 7.17484 9.52886 6.53317 10.9241 7.32484L12.0066 7.9415L13.089 8.55817C14.4842 9.34984 14.4842 10.6498 13.089 11.4415Z" fill="#302A2A"/>
</svg>
