<svg width="20" height="20" viewBox="0 0 20 20" fill="none" xmlns="http://www.w3.org/2000/svg">
<path fillRule="evenodd" clipRule="evenodd" d="M12.29 13.125C12.0831 14.5963 11.7331 15.8634 11.2831 16.7872C11.0637 17.2378 10.8244 17.6006 10.5609 17.8466C10.3816 18.0141 10.1994 18.125 10 18.125C9.80062 18.125 9.61844 18.0141 9.43906 17.8466C9.17562 17.6006 8.93625 17.2378 8.71688 16.7872C8.26688 15.8634 7.91688 14.5963 7.71 13.125H12.29ZM17.5013 13.125C16.5434 15.4187 14.5641 17.1812 12.1328 17.8416C12.7719 16.7678 13.2806 15.1062 13.5469 13.125H17.5013ZM6.45312 13.125C6.71937 15.1062 7.22813 16.7678 7.86719 17.8416C5.43563 17.1809 3.45625 15.4184 2.49875 13.125H6.45312ZM6.32156 8.125C6.27469 8.73 6.25 9.35719 6.25 10C6.25 10.6428 6.27469 11.27 6.32156 11.875H2.09281C1.95031 11.2731 1.875 10.6453 1.875 10C1.875 9.35469 1.95031 8.72687 2.09281 8.125H6.32156ZM12.4266 8.125C12.4747 8.72813 12.5 9.35563 12.5 10C12.5 10.6444 12.4747 11.2719 12.4266 11.875H7.57344C7.52531 11.2719 7.5 10.6444 7.5 10C7.5 9.35563 7.52531 8.72813 7.57344 8.125H12.4266ZM17.9072 8.125C18.0497 8.72687 18.125 9.35469 18.125 10C18.125 10.6453 18.0497 11.2731 17.9072 11.875H13.6784C13.7253 11.27 13.75 10.6428 13.75 10C13.75 9.35719 13.7253 8.73 13.6784 8.125H17.9072ZM7.86719 2.15844C7.22813 3.23219 6.71937 4.89375 6.45312 6.875H2.49875C3.45656 4.58125 5.43594 2.81875 7.86719 2.15844ZM10 1.875C10.1994 1.875 10.3816 1.98594 10.5609 2.15344C10.8244 2.39937 11.0637 2.76219 11.2831 3.21281C11.7331 4.13656 12.0831 5.40375 12.29 6.875H7.71C7.91688 5.40375 8.26688 4.13656 8.71688 3.21281C8.93625 2.76219 9.17562 2.39937 9.43906 2.15344C9.61844 1.98594 9.80062 1.875 10 1.875ZM12.1328 2.15844C14.5644 2.81906 16.5438 4.58156 17.5013 6.875H13.5469C13.2806 4.89375 12.7719 3.23219 12.1328 2.15844Z" fill="#64748B"/>
</svg>
