<svg width="15" height="14" viewBox="0 0 15 14" fill="none" xmlns="http://www.w3.org/2000/svg">
<path fillRule="evenodd" clipRule="evenodd" d="M7.50016 2.33325C7.82233 2.33325 8.0835 2.59442 8.0835 2.91659V11.0833C8.0835 11.4054 7.82233 11.6666 7.50016 11.6666C7.178 11.6666 6.91683 11.4054 6.91683 11.0833V2.91659C6.91683 2.59442 7.178 2.33325 7.50016 2.33325Z" fill="#E03137"/>
<path fillRule="evenodd" clipRule="evenodd" d="M10.246 8.33744C10.4738 8.56525 10.4738 8.93459 10.246 9.1624L7.91264 11.4957C7.68484 11.7235 7.31549 11.7235 7.08768 11.4957C6.85988 11.2679 6.85988 10.8986 7.08768 10.6708L9.42102 8.33744C9.64882 8.10963 10.0182 8.10963 10.246 8.33744Z" fill="#E03137"/>
<path fillRule="evenodd" clipRule="evenodd" d="M4.75435 8.33744C4.98216 8.10963 5.3515 8.10963 5.57931 8.33744L7.91264 10.6708C8.14045 10.8986 8.14045 11.2679 7.91264 11.4957C7.68484 11.7235 7.31549 11.7235 7.08768 11.4957L4.75435 9.1624C4.52654 8.93459 4.52654 8.56525 4.75435 8.33744Z" fill="#E03137"/>
</svg>
