<svg width="26" height="25" viewBox="0 0 26 25" fill="none" xmlns="http://www.w3.org/2000/svg">
<path d="M22.4054 6.14641L20.3879 7.33234C20.3063 7.37942 20.2423 7.45285 20.2063 7.54104C20.1702 7.62922 20.164 7.72713 20.1887 7.81929C20.2134 7.91145 20.2675 7.99261 20.3426 8.04994C20.4177 8.10727 20.5093 8.1375 20.6032 8.13586C20.6775 8.13507 20.7503 8.11432 20.8142 8.0757L22.8275 6.88117C22.8759 6.8531 22.9183 6.81556 22.9523 6.77073C22.9864 6.72589 23.0114 6.67464 23.0259 6.61992C23.0404 6.56521 23.0442 6.50811 23.0369 6.45191C23.0297 6.39572 23.0116 6.34154 22.9837 6.2925C22.9259 6.19523 22.8326 6.12524 22.7242 6.09786C22.6158 6.07048 22.5012 6.08793 22.4054 6.14641Z" fill="#173206"/>
<path d="M19.4806 6.16366C19.5759 6.16699 19.6695 6.13737 19.7461 6.07963C19.8228 6.02189 19.878 5.93944 19.9027 5.8457L20.502 3.55546C20.5185 3.49902 20.5233 3.43973 20.5163 3.38129C20.5093 3.32285 20.4906 3.2665 20.4613 3.21573C20.432 3.16497 20.3928 3.12087 20.3461 3.08617C20.2994 3.05148 20.2461 3.02693 20.1897 3.01406C20.0817 2.98522 19.9668 3.00113 19.8703 3.05831C19.7738 3.11549 19.7035 3.20928 19.6748 3.31913L19.0712 5.61366C19.0554 5.66954 19.0509 5.72811 19.0579 5.78581C19.065 5.84352 19.0835 5.89917 19.1123 5.94939C19.1411 5.9996 19.1796 6.04334 19.2255 6.07796C19.2714 6.11258 19.3237 6.13735 19.3793 6.15077L19.4806 6.16366Z" fill="#173206"/>
<path d="M21.8778 9.34333C21.8237 9.32643 21.7667 9.3208 21.7104 9.32678C21.654 9.33275 21.5994 9.35021 21.5499 9.37811C21.5003 9.40602 21.4568 9.44379 21.4218 9.48919C21.3869 9.53459 21.3613 9.58668 21.3466 9.64237C21.3318 9.69805 21.3283 9.75618 21.336 9.8133C21.3438 9.87042 21.3629 9.92535 21.3919 9.97483C21.421 10.0243 21.4596 10.0673 21.5054 10.1013C21.5512 10.1353 21.6032 10.1595 21.6583 10.1726L23.9122 10.7828C23.9485 10.7893 23.9856 10.7893 24.0219 10.7828C24.1339 10.797 24.2468 10.7654 24.3358 10.6949C24.4249 10.6244 24.4828 10.5208 24.4968 10.4068C24.5108 10.2929 24.4797 10.1779 24.4105 10.0872C24.3412 9.99659 24.2394 9.93766 24.1275 9.92341L21.8778 9.34333Z" fill="#173206"/>
<path d="M2.56793 15.4749C2.5006 15.7254 2.48309 15.9871 2.51643 16.2446C2.54977 16.5022 2.63329 16.7503 2.76209 16.9745L4.28577 19.6472C4.54051 20.0957 4.95936 20.4232 5.45069 20.5581C5.56633 20.5907 5.68532 20.6095 5.80523 20.614L2.69033 15.1226C2.63775 15.2354 2.59673 15.3535 2.56793 15.4749Z" fill="#173206"/>
<path d="M3.26465 14.4093L6.7172 20.4679C6.79493 20.4376 6.86981 20.4002 6.9409 20.3562L7.09285 20.2702L7.34609 20.6999C7.81466 21.5284 8.41351 22.273 9.1188 22.9042L9.49444 23.2437C9.71078 23.439 9.99035 23.5461 10.2795 23.5444C10.4873 23.5453 10.6915 23.4888 10.8704 23.3812L12.1113 22.6507C12.2733 22.5551 12.4106 22.4217 12.512 22.2614C12.6134 22.1012 12.6759 21.9187 12.6945 21.7291C12.713 21.5394 12.687 21.348 12.6187 21.1705C12.5503 20.9931 12.4415 20.8347 12.3012 20.7085C11.6681 20.1355 11.1282 19.464 10.7016 18.719L10.4483 18.2894L10.9759 17.98L7.51914 11.8784L3.46724 14.2632C3.39639 14.3069 3.32869 14.3558 3.26465 14.4093Z" fill="#173206"/>
<path d="M15.2979 4.04105C14.9859 4.01532 14.6724 4.06764 14.3847 4.19346C14.0971 4.31928 13.844 4.51477 13.6476 4.76292L8.16064 11.2985L11.782 17.6664L19.9365 15.5438C20.2314 15.4732 20.506 15.3334 20.7383 15.1354C20.9707 14.9374 21.1543 14.6869 21.2745 14.4038C21.3946 14.1206 21.4481 13.8128 21.4305 13.5049C21.4129 13.197 21.3248 12.8975 21.1731 12.6305L16.8469 5.02074C16.6867 4.74129 16.4618 4.50594 16.1918 4.33519C15.9218 4.16444 15.615 4.06347 15.2979 4.04105Z" fill="#173206"/>
</svg>
