<svg width="16" height="17" viewBox="0 0 16 17" fill="none" xmlns="http://www.w3.org/2000/svg">
<path d="M12.6894 13.1668C12.3207 13.1668 12.0447 13.4655 12.0447 13.8335L4.00341 13.8508C4.00341 13.8508 4.00008 13.8455 4.00008 13.8335C4.00008 13.4655 3.70141 13.1668 3.33341 13.1668C2.96541 13.1668 2.66675 13.4655 2.66675 13.8335C2.66675 14.5688 3.24475 15.1668 3.95541 15.1668H12.0447C12.7554 15.1668 13.3334 14.5688 13.3334 13.8335C13.3334 13.4655 13.0574 13.1668 12.6894 13.1668Z" fill="#4E544D"/>
<path d="M12.0447 1.8335H6.55275C6.01808 1.8335 5.51541 2.0415 5.13808 2.4195L3.25275 4.30483C2.87475 4.68216 2.66675 5.18483 2.66675 5.7195V6.50016C2.66675 6.86816 2.96541 7.16683 3.33341 7.16683C3.70141 7.16683 4.00008 6.86816 4.00008 6.50016H6.00008C6.73541 6.50016 7.33342 5.90216 7.33342 5.16683V3.16683H12.0001V6.50016C12.0001 6.86816 12.2987 7.16683 12.6667 7.16683C13.0347 7.16683 13.3334 6.86816 13.3334 6.50016V3.16683C13.3334 2.4315 12.7554 1.8335 12.0447 1.8335ZM6.00008 5.16683H4.27608L6.00008 3.44283V5.16683Z" fill="#4E544D"/>
<path d="M3.33341 12.5002C3.70141 12.5002 4.00008 12.2015 4.00008 11.8335V11.1668H4.33341C5.25208 11.1668 6.00008 10.4188 6.00008 9.50016C6.00008 8.5815 5.25208 7.8335 4.33341 7.8335H3.33341C2.96541 7.8335 2.66675 8.13216 2.66675 8.50016V11.8335C2.66675 12.2015 2.96541 12.5002 3.33341 12.5002ZM4.00008 9.16683H4.33341C4.51741 9.16683 4.66675 9.31616 4.66675 9.50016C4.66675 9.68416 4.51741 9.8335 4.33341 9.8335H4.00008V9.16683Z" fill="#4E544D"/>
<path d="M8.25008 12.5002C9.21475 12.5002 10.0001 11.7148 10.0001 10.7502V9.5835C10.0001 8.61883 9.21475 7.8335 8.25008 7.8335H7.33342C6.96542 7.8335 6.66675 8.13216 6.66675 8.50016V11.8335C6.66675 12.2015 6.96542 12.5002 7.33342 12.5002H8.25008ZM8.00008 9.16683H8.25008C8.48008 9.16683 8.66675 9.3535 8.66675 9.5835V10.7502C8.66675 10.9802 8.48008 11.1668 8.25008 11.1668H8.00008V9.16683Z" fill="#4E544D"/>
<path d="M12.6667 9.16683C13.0347 9.16683 13.3334 8.86816 13.3334 8.50016C13.3334 8.13216 13.0347 7.8335 12.6667 7.8335H11.3334C10.9654 7.8335 10.6667 8.13216 10.6667 8.50016V11.8335C10.6667 12.2015 10.9654 12.5002 11.3334 12.5002C11.7014 12.5002 12.0001 12.2015 12.0001 11.8335V11.1668H12.6667C13.0347 11.1668 13.3334 10.8682 13.3334 10.5002C13.3334 10.1322 13.0347 9.8335 12.6667 9.8335H12.0001V9.16683H12.6667Z" fill="#4E544D"/>
</svg>
