<svg width="26" height="25" viewBox="0 0 26 25" fill="none" xmlns="http://www.w3.org/2000/svg">
<path d="M18.2786 15.2367C19.8264 15.2367 21.0858 13.9773 21.0858 12.4293C21.0858 10.8815 19.8264 9.62207 18.2786 9.62207C16.7306 9.62207 15.4712 10.8815 15.4712 12.4293C15.4712 13.9773 16.7306 15.2367 18.2786 15.2367Z" fill="#173206"/>
<path d="M15.2471 20.286V17.4239C15.2471 15.2041 14.106 13.2461 12.3799 12.1045C11.444 12.9292 10.2162 13.4303 8.87378 13.4303C7.531 13.4303 6.30347 12.9292 5.36731 12.1045C3.64111 13.246 2.5 15.204 2.5 17.4239V19.6912C2.5 20.0197 2.76636 20.286 3.09497 20.286H15.2471Z" fill="#173206"/>
<path d="M8.87366 12.2404C11.1454 12.2404 12.9937 10.3921 12.9937 8.12024C12.9937 5.84839 11.1454 4 8.87366 4C6.60168 4 4.75342 5.84839 4.75342 8.12024C4.75342 10.3921 6.60168 12.2404 8.87366 12.2404Z" fill="#173206"/>
<path d="M21.1653 15.1914C20.437 15.9523 19.4121 16.4266 18.2784 16.4266C17.551 16.4266 16.8685 16.2312 16.2803 15.8903C16.3828 16.3857 16.4366 16.8986 16.4366 17.4239V20.286H21.9048C22.2334 20.286 22.4998 20.0197 22.4998 19.6912V18.2682C22.4998 17.0563 21.9861 15.962 21.1653 15.1914Z" fill="#173206"/>
</svg>
