<svg width="25" height="25" viewBox="0 0 25 25" fill="none" xmlns="http://www.w3.org/2000/svg">
<path d="M16.0404 13.7527C15.8446 13.7366 15.6504 13.7988 15.5003 13.9257C15.3503 14.0526 15.2568 14.2338 15.2402 14.4295C15.1746 15.2036 15.0933 15.8769 15.0222 16.2307V16.235C14.8125 17.3168 13.7877 18.3861 12.7368 18.6212C12.6458 18.6399 12.5544 18.6579 12.4634 18.6751C12.5415 17.6702 12.5997 16.3854 12.5919 15.3946C12.6036 13.8808 12.4587 11.5501 12.3303 10.6226C12.0994 8.91475 11.0493 7.02063 9.88744 6.21573L9.88041 6.21105C9.07258 5.66531 8.20682 5.21068 7.29894 4.85548C7.137 4.79274 6.97701 4.73416 6.81897 4.67974C7.68081 4.54649 8.55179 4.4812 9.42387 4.48447C10.6111 4.48447 11.6948 4.59265 12.7368 4.80901C13.7877 5.04333 14.8125 6.11341 15.0222 7.1952V7.1995C15.0929 7.55098 15.1742 8.22427 15.2398 8.99598C15.2564 9.1921 15.3504 9.37357 15.5008 9.50046C15.6513 9.62735 15.846 9.68926 16.0421 9.67259C16.2383 9.65591 16.4197 9.56201 16.5466 9.41154C16.6735 9.26106 16.7354 9.06635 16.7187 8.87022C16.6477 8.03486 16.5602 7.32057 16.4782 6.90972C16.1544 5.24563 14.6817 3.71902 13.0524 3.35816L13.043 3.35621C11.8979 3.11876 10.7146 3.00238 9.42113 3.00003C8.12767 2.99769 6.94902 3.1172 5.80396 3.3566L5.7942 3.35855C5.06701 3.51984 4.37146 3.9135 3.79503 4.44737C3.63924 4.56484 3.50307 4.70628 3.3916 4.86642C2.88234 5.46082 2.5125 6.17199 2.36878 6.90972C2.18874 7.81225 1.98527 10.1528 2.00089 11.7149C1.9923 12.553 2.04659 13.6153 2.12704 14.5592C2.17 15.1645 2.21881 15.6918 2.26568 16.03C2.49649 17.7378 3.54665 19.6319 4.70889 20.4368L4.71553 20.4415C5.52354 20.9872 6.38942 21.4418 7.29738 21.7971C8.21671 22.154 9.06027 22.3704 9.87689 22.4586H9.88392C10.9813 22.5567 11.9788 21.6041 12.2807 20.2115C12.5361 20.1709 12.7893 20.1246 13.0403 20.0728L13.0496 20.0709C14.6793 19.71 16.1517 18.1834 16.4754 16.5193C16.5574 16.1077 16.6453 15.3918 16.7164 14.5545C16.733 14.3586 16.6711 14.1641 16.5443 14.0137C16.4175 13.8634 16.2363 13.7695 16.0404 13.7527Z" fill="#DAFAC6"/>
<path d="M22.0001 11.7134C22.0001 11.6888 22.0001 11.6642 21.9962 11.6396C21.9964 11.6381 21.9964 11.6365 21.9962 11.635C21.9939 11.6119 21.9903 11.5889 21.9857 11.5662V11.5611C21.9564 11.4201 21.8864 11.2907 21.7845 11.189L19.1289 8.53095C18.9897 8.39174 18.8009 8.31351 18.6041 8.31348C18.4073 8.31344 18.2185 8.3916 18.0793 8.53075C17.9401 8.66991 17.8619 8.85867 17.8618 9.0555C17.8618 9.25233 17.9399 9.44112 18.0791 9.58033L19.4721 10.973H14.3494C14.1526 10.973 13.9639 11.0512 13.8248 11.1903C13.6856 11.3295 13.6074 11.5182 13.6074 11.715C13.6074 11.9118 13.6856 12.1005 13.8248 12.2397C13.9639 12.3789 14.1526 12.457 14.3494 12.457H19.4655L18.0736 13.8489C17.9349 13.9882 17.8572 14.1768 17.8574 14.3733C17.8576 14.5698 17.9357 14.7582 18.0747 14.8972C18.2137 15.0362 18.4021 15.1143 18.5986 15.1145C18.7952 15.1147 18.9837 15.037 19.123 14.8983L21.7666 12.2547C21.8624 12.1649 21.9326 12.0511 21.9696 11.9251C21.9763 11.9027 21.9818 11.8798 21.986 11.8568C21.9862 11.8535 21.9862 11.8503 21.986 11.847C21.9896 11.8271 21.9931 11.808 21.995 11.7869C21.997 11.7658 21.995 11.7564 21.995 11.7416C21.995 11.733 21.995 11.7244 21.995 11.7158L22.0001 11.7134Z" fill="#DAFAC6"/>
</svg>
