<svg width="25" height="25" viewBox="0 0 25 25" fill="none" xmlns="http://www.w3.org/2000/svg">
<path d="M21.0881 12.9898L21.0676 12.9693V12.0676C21.0676 9.63935 20.125 7.36475 18.4139 5.65369C16.7029 3.94262 14.418 3 11.9898 3C9.56148 3 7.28688 3.94262 5.56557 5.65369C3.85451 7.375 2.91189 9.64959 2.91189 12.0676V12.9693L2.89139 12.9898C2.32787 13.5635 2 14.3422 2 15.1414V17.8771C2 18.6865 2.32787 19.4652 2.89139 20.0287C3.45492 20.5922 4.23361 20.9201 5.04303 20.9201C5.85246 20.9201 6.6209 20.6025 7.19467 20.0287C7.76844 19.4652 8.09631 18.6762 8.09631 17.8771V15.1414C8.09631 14.3422 7.76844 13.5635 7.19467 12.9898C6.47746 12.2725 5.41188 12.0061 4.44877 12.1803V12.0676C4.44877 10.0594 5.2377 8.16394 6.66189 6.73975C8.08607 5.31557 9.98156 4.52664 12 4.52664C14.0184 4.52664 15.9037 5.31557 17.3381 6.73975C18.7623 8.16394 19.5512 10.0594 19.5512 12.0676V12.1906C18.5779 12.0061 17.5225 12.2725 16.8053 12.9898C16.2316 13.5635 15.9139 14.3422 15.9139 15.1414V17.8771C15.9139 18.6762 16.2316 19.4652 16.8053 20.0287C16.8566 20.0799 16.918 20.1414 16.9795 20.1824C16.0984 20.8484 15.0533 21.2992 13.957 21.4631C13.5369 21.5246 13.2398 21.9139 13.3012 22.334C13.3525 22.7131 13.6803 22.9898 14.0594 22.9898H14.1721C15.791 22.7643 17.3176 22.0164 18.5164 20.8996C18.6598 20.9201 18.8135 20.9303 18.957 20.9303C19.7561 20.9303 20.5451 20.6127 21.1086 20.0389C21.6721 19.4754 22 18.6967 22 17.8873V15.1516C22 14.3525 21.6721 13.5738 21.1086 13L21.0881 12.9898Z" fill="#DAFAC6"/>
</svg>
