<svg width="26" height="25" viewBox="0 0 26 25" fill="none" xmlns="http://www.w3.org/2000/svg">
<path d="M4.64286 7C3.46122 7 2.5 7.96122 2.5 9.14286C2.5 10.3245 3.46122 11.2857 4.64286 11.2857C5.57281 11.2857 6.35829 10.6868 6.6541 9.85714H11.0714V8.42857H6.6541C6.35829 7.59893 5.57281 7 4.64286 7Z" fill="#173206"/>
<path d="M8.92857 6.28571V4.14286C8.92857 3.74805 8.6091 3.42857 8.21429 3.42857H6.6541C6.35829 2.59893 5.57281 2 4.64286 2C3.46122 2 2.5 2.96122 2.5 4.14286C2.5 5.3245 3.46122 6.28571 4.64286 6.28571C5.57281 6.28571 6.35829 5.68679 6.6541 4.85714H7.5V7C7.5 7.39481 7.81948 7.71429 8.21429 7.71429H11.0714V6.28571H8.92857Z" fill="#173206"/>
<path d="M7.5 11.2858V13.4287H6.6541C6.35829 12.599 5.57281 12.0001 4.64286 12.0001C3.46122 12.0001 2.5 12.9613 2.5 14.143C2.5 15.3246 3.46122 16.2858 4.64286 16.2858C5.57281 16.2858 6.35829 15.6869 6.6541 14.8572H8.21429C8.6091 14.8572 8.92857 14.5378 8.92857 14.143V12.0001H11.0714V10.5715H8.21429C7.81948 10.5715 7.5 10.891 7.5 11.2858Z" fill="#173206"/>
<path d="M21.0715 20.5715C21.0715 21.3605 20.4319 22.0001 19.6429 22.0001C18.8539 22.0001 18.2144 21.3605 18.2144 20.5715H21.0715Z" fill="#173206"/>
<path d="M15.3571 20.5715C15.3571 21.3605 14.7176 22.0001 13.9286 22.0001C13.1396 22.0001 12.5 21.3605 12.5 20.5715H15.3571Z" fill="#173206"/>
<path d="M13.9287 16.2856H19.643V16.9999H13.9287V16.2856Z" fill="#173206"/>
<path d="M17.4999 9.85714V9.14286H18.9284C20.5064 9.14286 21.7856 7.86369 21.7856 6.28571V4.85714C21.7856 3.27917 20.5064 2 18.9284 2H14.6427C13.0647 2 11.7856 3.27917 11.7856 4.85714V6.28571C11.7856 7.86369 13.0647 9.14286 14.6427 9.14286H16.0713V9.85714C13.3099 9.85714 11.0713 12.0957 11.0713 14.8571V18.4286C11.0713 19.2175 11.7109 19.8571 12.4999 19.8571H21.0713C21.8603 19.8571 22.4999 19.2175 22.4999 18.4286V14.8571C22.4999 12.0957 20.2613 9.85714 17.4999 9.85714ZM18.5713 3.42857C19.1621 3.42857 19.6427 3.90918 19.6427 4.5C19.6427 5.09082 19.1621 5.57143 18.5713 5.57143C17.9805 5.57143 17.4999 5.09082 17.4999 4.5C17.4999 3.90918 17.9805 3.42857 18.5713 3.42857ZM13.9284 4.5C13.9284 3.90918 14.409 3.42857 14.9999 3.42857C15.5907 3.42857 16.0713 3.90918 16.0713 4.5C16.0713 5.09082 15.5907 5.57143 14.9999 5.57143C14.409 5.57143 13.9284 5.09082 13.9284 4.5ZM15.7141 7.71429C15.5167 7.71429 15.357 7.55455 15.357 7.35714C15.357 7.15974 15.5167 7 15.7141 7H17.857C18.0544 7 18.2141 7.15974 18.2141 7.35714C18.2141 7.55455 18.0544 7.71429 17.857 7.71429H15.7141ZM16.7856 11.2857C17.5745 11.2857 18.2141 11.9253 18.2141 12.7143C18.2141 13.5033 17.5745 14.1429 16.7856 14.1429C15.9966 14.1429 15.357 13.5033 15.357 12.7143C15.357 11.9253 15.9966 11.2857 16.7856 11.2857ZM20.357 17C20.357 17.3945 20.0372 17.7143 19.6427 17.7143H13.9284C13.5339 17.7143 13.2141 17.3945 13.2141 17V16.2857C13.2141 15.8912 13.5339 15.5714 13.9284 15.5714H19.6427C20.0372 15.5714 20.357 15.8912 20.357 16.2857V17Z" fill="#173206"/>
<path d="M16.7856 13.4286C17.1801 13.4286 17.4999 13.1088 17.4999 12.7143C17.4999 12.3198 17.1801 12 16.7856 12C16.3911 12 16.0713 12.3198 16.0713 12.7143C16.0713 13.1088 16.3911 13.4286 16.7856 13.4286Z" fill="#173206"/>
</svg>
