<svg width="12" height="12" viewBox="0 0 12 12" fill="none" xmlns="http://www.w3.org/2000/svg">
<path d="M6 0C2.68 0 0 2.68 0 6C0 9.32 2.68 12 6 12C9.32 12 12 9.32 12 6C12 2.68 9.32 0 6 0ZM6.66667 8.78667C6.66667 9.14667 6.36 9.44 6 9.44C5.64 9.44 5.33333 9.14667 5.33333 8.78667V5.37333C5.33333 5.01333 5.64 4.72 6 4.72C6.36 4.72 6.66667 5.01333 6.66667 5.37333V8.78667ZM6.01333 3.86667C5.65333 3.86667 5.36 3.57333 5.36 3.21333C5.36 2.85333 5.65333 2.56 6.01333 2.56C6.37333 2.56 6.66667 2.85333 6.66667 3.21333C6.66667 3.57333 6.37333 3.86667 6.01333 3.86667Z" fill="#DAFACA"/>
</svg>
